<?xml version="1.0" encoding="UTF-8" standalone="no"?><!DOCTYPE svg PUBLIC "-//W3C//DTD SVG 1.1//EN" "http://www.w3.org/Graphics/SVG/1.1/DTD/svg11.dtd"><svg width="100%" height="100%" viewBox="0 0 600 600" version="1.1" xmlns="http://www.w3.org/2000/svg" xmlns:xlink="http://www.w3.org/1999/xlink" xml:space="preserve" style="fill-rule:evenodd;clip-rule:evenodd;stroke-linejoin:round;stroke-miterlimit:1.41421;"><rect x="479.277" y="489.241" width="42.48" height="5.641" style="fill:#fff;fill-rule:nonzero;"/><path d="M597.829,255.809c-0.264,-0.216 -0.645,-0.286 -0.944,-0.185c-0.363,0.111 -0.697,0.208 -1.012,0.3l-0.153,0.046c-0.774,0.228 -1.446,0.422 -2.109,0.687c-10.48,4.165 -18.73,11.298 -25.224,21.806c-1.603,2.597 -2.845,5.297 -3.834,7.988c1.623,-9.055 1.998,-12.582 2.286,-22.714c0.015,-0.425 0.015,-0.858 0.015,-1.287c0,-1.172 0,-2.279 0.256,-3.29c0.308,-1.198 0.925,-2.391 1.522,-3.547c0.169,-0.328 0.337,-0.654 0.476,-0.941c0.047,-0.056 0.203,-0.151 0.264,-0.161c2.997,-0.458 5.647,-1.731 8.106,-3.89c2.476,-2.187 4.511,-4.861 6.05,-7.955c5.53,-11.09 8.298,-23.347 8.229,-36.427c-0.006,-1.262 -0.154,-2.49 -0.318,-3.827c-0.075,-0.599 -0.149,-1.21 -0.211,-1.846c-0.036,-0.347 -0.25,-0.656 -0.56,-0.805c-0.306,-0.149 -0.675,-0.14 -0.985,0.047c-0.188,0.116 -0.347,0.212 -0.49,0.297c-0.282,0.168 -0.495,0.297 -0.7,0.444c-4.718,3.381 -8.878,7.591 -12.367,12.509c-5.696,8.04 -9.009,17.127 -9.899,27.127c-0.089,-1.113 -0.178,-2.23 -0.268,-3.344l-0.031,-0.404c-0.351,-4.369 -0.712,-8.889 -1.006,-13.331c-0.077,-1.125 -0.292,-2.219 -0.5,-3.279c-0.403,-2.035 -0.784,-3.959 -0.174,-5.974c0.141,-0.456 0.257,-0.915 0.373,-1.372c0.29,-1.134 1.681,-2.878 3.82,-4.787l0.079,-0.073c0.789,-0.67 4.84,-4.376 7.139,-11.704c2.331,-7.45 2.156,-15.232 2.027,-20.914l-0.004,-0.15c-0.172,-7.811 -1.015,-13.7 -2.734,-19.089c-0.222,-0.689 -0.487,-1.37 -0.767,-2.084c-0.142,-0.372 -0.294,-0.756 -0.446,-1.159c-0.125,-0.34 -0.426,-0.587 -0.779,-0.645l-0.171,-0.016c-0.304,0 -0.59,0.137 -0.784,0.374l-1.672,2.037c-8.018,9.78 -11.957,21.249 -11.71,34.092c0.043,2.262 0.211,4.581 0.514,6.977c-2.04,-7.035 -4.428,-13.88 -7.146,-20.466c-0.057,-0.142 -0.094,-0.323 -0.098,-0.474l-0.019,-0.9c-0.028,-1.298 -0.057,-2.643 -0.001,-3.966c0.009,-0.219 0.15,-0.612 0.447,-1.002c0.421,-0.552 0.886,-1.097 1.367,-1.661c0.823,-0.954 1.672,-1.945 2.344,-3.073c2.167,-3.629 3.183,-7.916 3.202,-13.494c0.029,-6.564 -0.985,-13.473 -3.19,-21.743c-1.204,-4.512 -3.024,-10.372 -6.414,-15.686c-0.231,-0.358 -0.486,-0.694 -0.761,-1.048c-0.124,-0.158 -0.253,-0.328 -0.385,-0.507c-0.192,-0.26 -0.457,-0.41 -0.887,-0.41c-0.342,0.024 -0.646,0.22 -0.817,0.521c-4.254,7.677 -6.372,15.877 -6.473,25.073c-0.085,7.668 1.111,14.264 2.612,19.478c-3.821,-6.981 -8.065,-13.722 -12.668,-20.119l-0.106,-0.144c-0.105,-0.14 -0.148,-0.204 -0.141,-0.159c-0.289,-2.07 -0.487,-3.725 -0.628,-5.167c0.003,-0.021 0.03,-0.143 0.245,-0.502c0.304,-0.518 0.639,-1.027 0.991,-1.562c0.709,-1.081 1.444,-2.2 1.914,-3.452c1.42,-3.775 1.737,-8.061 0.972,-13.091c-1.681,-11.135 -6.59,-21.161 -15.003,-30.652c-0.865,-0.975 -1.822,-1.836 -2.834,-2.746l-0.281,-0.254c-0.394,-0.36 -0.8,-0.726 -1.211,-1.113c-0.263,-0.249 -0.637,-0.342 -0.997,-0.235c-0.343,0.109 -0.609,0.391 -0.689,0.745l-0.183,0.805c-0.125,0.536 -0.224,0.958 -0.297,1.382c-1.133,6.761 -1.048,13.998 0.254,22.135c1.295,8.069 3.87,15.026 7.826,21.072c-5.929,-6.985 -11.697,-12.852 -17.724,-18.051c-0.027,-0.036 -0.067,-0.141 -0.072,-0.17c0.471,-4.059 -0.529,-7.882 -3.061,-11.688c-3.326,-5.003 -7.946,-8.816 -13.733,-11.331c-3.462,-1.502 -7.05,-2.83 -10.563,-4.135c-1.683,-0.625 -3.366,-1.247 -5.1,-1.914c-1.74,-0.695 -2.485,-0.817 -2.89,-0.444c-0.518,0.484 -0.394,0.898 -0.169,1.65l0.074,0.245c2.124,7.154 4.942,12.811 8.618,17.297c6.748,8.239 14.641,12.425 24.114,12.798c0.33,0.019 0.595,0.111 0.703,0.195c1.334,0.999 2.316,1.797 3.184,2.589c2.745,2.512 5.449,5.182 8.093,7.997c-3.933,-2.444 -8.742,-3.546 -14.157,-3.272c-2.964,0.148 -5.905,0.582 -8.75,1.005l-0.109,0.016c-0.841,0.122 -1.677,0.245 -2.514,0.363c-1.828,0.248 -3.671,0.572 -5.297,0.856c-0.66,0.118 -2.234,0.476 -2.596,1.24c-0.126,0.261 -0.114,0.547 0.027,0.808c0.125,0.226 0.265,0.439 0.414,0.633c4.699,6.096 10.056,10.109 16.383,12.272c7.714,2.646 14.797,2.427 21.164,-0.686c0.974,-0.537 2.148,-0.807 3.489,-0.807c1.012,0 1.77,0.159 2.022,0.217c0.377,0.063 0.89,0.273 0.993,0.409c3.958,5.204 7.716,10.764 11.225,16.605c-2.964,-2.883 -6.829,-4.826 -12.097,-6.093c-4.615,-1.1 -9.335,-1.334 -13.898,-1.565l-1.527,-0.078c-1.431,-0.076 -2.862,-0.166 -4.336,-0.258l-2.472,-0.153c-0.32,0 -0.623,0.155 -0.809,0.413c-0.205,0.276 -0.255,0.636 -0.134,0.957c0.1,0.269 0.279,0.744 0.372,0.904c4.812,8.049 10.463,13.617 17.275,17.022c6.657,3.327 12.672,4.206 18.741,2.754c0.702,-0.168 1.515,-0.259 2.356,-0.259c2.582,0 4.383,0.788 4.761,1.516c3.338,6.888 6.318,14.045 8.888,21.343c-2.695,-3.716 -6.464,-6.734 -11.235,-8.989c-4.74,-2.238 -9.675,-4.284 -14.532,-6.297c-2.087,-0.861 -4.182,-1.729 -6.268,-2.613c-0.311,-0.138 -0.676,-0.109 -0.966,0.081c-0.284,0.19 -0.453,0.507 -0.453,0.845c0,0.652 6.923,19.873 16.984,27.45c4.104,3.088 9.157,6.266 15.53,6.418c1.907,0.039 3.88,0.309 5.369,2.001c0.228,0.27 0.53,0.48 0.859,0.591c0.511,0.168 0.649,0.479 0.899,1.54c2.064,8.668 3.568,17.598 4.493,26.671c-0.28,-0.922 -0.606,-1.852 -0.979,-2.793c-2.25,-5.707 -6.041,-10.703 -11.922,-15.722c-3.032,-2.596 -6.207,-5.109 -9.279,-7.543l-0.145,-0.116c-1.398,-1.108 -2.795,-2.212 -4.185,-3.328c-0.289,-0.233 -0.569,-0.47 -0.892,-0.746l-0.867,-0.744c-0.303,-0.258 -0.757,-0.312 -1.11,-0.133c-0.365,0.184 -0.583,0.567 -0.555,0.976c0.043,0.612 0.078,1.192 0.11,1.749l0.016,0.26c0.069,1.147 0.134,2.229 0.249,3.297c1.089,10.393 4.18,19.072 9.45,26.53c3.264,4.61 7.944,10.242 15.24,12.91c1.775,0.65 3.063,1.638 4.443,3.41c1.302,1.659 1.545,3.172 1.516,5.08c-0.124,7.99 -0.694,15.917 -1.699,23.678c-0.235,-2.16 -0.732,-4.383 -1.496,-6.695c-1.579,-4.783 -4.044,-9.436 -7.531,-14.218c-3.011,-4.143 -6.142,-8.301 -9.171,-12.324l-0.204,-0.269c-1.201,-1.592 -2.4,-3.187 -3.57,-4.748c-0.219,-0.32 -0.536,-0.436 -0.719,-0.499c-0.259,-0.127 -0.568,-0.139 -0.843,-0.022c-0.268,0.114 -0.476,0.342 -0.567,0.619l-0.036,0.11c-0.049,0.143 -0.089,0.273 -0.109,0.405c-2.088,12.455 -0.807,23.616 3.918,34.125c2.307,5.137 5.403,10.953 10.859,15.138c2.491,1.911 4.458,4.591 5.539,7.547c0.23,0.637 0.222,0.913 0.195,1.018c-2.309,9.566 -5.328,18.795 -8.993,27.525c0.944,-4.602 0.88,-9.436 -0.199,-14.445c-1.531,-7.101 -4.161,-13.98 -6.508,-19.871l-0.704,-1.765c-1.101,-2.762 -2.207,-5.544 -3.351,-8.427c-0.145,-0.369 -0.495,-0.62 -0.962,-0.643c-0.367,0 -0.706,0.21 -0.883,0.55l-0.367,0.694c-0.163,0.304 -0.314,0.587 -0.444,0.879c-4.719,10.649 -6.314,21.565 -4.735,32.446c1.129,7.78 3.041,13.352 6.2,18.065c1.635,2.435 3.188,5.148 3.47,8.486c0.067,0.79 0.036,1.333 -0.317,1.953c-3.984,6.978 -8.451,13.561 -13.341,19.677c0.017,-0.034 0.036,-0.067 0.054,-0.101c3.519,-6.431 3.625,-13.386 3.265,-19.34c-0.31,-5.105 -0.895,-10.203 -1.457,-15.132l-0.033,-0.284c-0.227,-1.975 -0.453,-3.948 -0.658,-5.925c-0.119,-1.12 -0.252,-2.241 -0.39,-3.38l-0.181,-1.54c-0.039,-0.339 -0.246,-0.635 -0.546,-0.783c-0.556,-0.291 -1.455,0.158 -2.427,1.306c-6.674,7.895 -10.818,16.82 -12.314,26.521c-1.55,10.06 -0.71,18.671 2.575,26.322c0.087,0.203 0.085,0.618 0.084,0.759l-0.176,4.402c-0.026,0.316 -0.194,0.672 -0.331,0.805c-6.667,6.421 -14.006,12.002 -21.882,16.646c3.729,-3.37 6.409,-7.766 8.145,-13.338c1.924,-6.174 2.914,-12.604 3.871,-18.834l0.082,-0.555c0.34,-2.188 0.695,-4.374 1.055,-6.609l0.408,-2.523c0.059,-0.367 -0.086,-0.735 -0.371,-0.955c-0.283,-0.227 -0.693,-0.281 -1.018,-0.141l-0.357,0.146c-0.38,0.156 -0.71,0.296 -1.023,0.454c-14.89,7.437 -24.69,24.781 -23.304,41.239c0.216,2.579 -0.019,5 -0.724,7.396c-0.066,0.218 -0.276,0.455 -0.362,0.495c-7.071,2.984 -13.797,5.159 -20.562,6.652c-0.347,0.079 -0.623,0.328 -0.735,0.664c-0.112,0.338 -0.045,0.705 0.186,0.982c0.735,0.871 1.377,1.807 1.902,2.79c0.217,0.401 0.734,0.607 1.117,0.507c5.513,-1.258 10.881,-2.887 15.96,-4.844c0.411,-0.166 0.725,-0.244 1.016,-0.195c1.131,0.149 2.326,0.382 3.649,0.71c0.274,0.068 0.501,0.194 0.505,0.18c2.896,5.773 7.872,9.452 15.219,11.24c1.599,0.382 3.247,0.666 4.899,0.839c1.73,0.183 3.659,0.275 5.734,0.275c2.872,0 4.922,-0.177 4.947,-0.178c6.366,-0.714 11.805,-2.147 16.622,-4.383c1.977,-0.917 4.229,-2.149 5.958,-4.353c0.331,-0.423 0.275,-1.032 -0.127,-1.387c-4.891,-4.317 -9.874,-7.454 -15.232,-9.59c-7.938,-3.154 -15.171,-4.008 -22.257,-2.644c-1.059,0.204 -2.093,0.465 -3.099,0.763c6.631,-3.963 12.979,-8.622 18.974,-13.927c0.113,-0.104 0.302,-0.197 0.452,-0.223c0.982,-0.163 2.283,-0.361 3.616,-0.457c0.123,0 0.28,0.057 0.297,0.066c3.611,4.042 8.266,6.006 14.229,6.006c0.302,0 0.609,-0.006 0.913,-0.015c6.482,-0.208 12.997,-1.989 19.371,-5.298c4.632,-2.415 9.458,-5.229 13.374,-9.423c0.867,-0.932 1.641,-1.986 2.328,-2.919l0.068,-0.091c0.302,-0.41 0.61,-0.824 0.922,-1.232c0.172,-0.222 0.243,-0.507 0.199,-0.793c-0.047,-0.275 -0.207,-0.519 -0.481,-0.699c-0.07,-0.038 -1.727,-0.926 -3.24,-1.514c-10.135,-3.917 -20.366,-4.318 -30.127,-1.173c-3.196,1.027 -6.203,2.57 -9.131,4.701c5.415,-6.296 10.429,-13.195 14.982,-20.619c0.048,-0.078 0.178,-0.292 0.22,-0.329c0.398,-0.253 0.806,-0.493 1.212,-0.731c0.729,-0.428 1.484,-0.869 2.19,-1.396c0.599,-0.445 0.766,-0.457 1.37,-0.069c0.855,0.554 1.848,0.844 2.713,1.07c5.067,1.296 10.172,0.651 15.823,-2.001c5.161,-2.421 9.128,-6.243 12.648,-10.016c5.12,-5.5 8.466,-10.462 10.531,-15.618c0.432,-1.081 0.742,-2.203 1.064,-3.371c0.133,-0.491 0.268,-0.983 0.412,-1.463c0.159,-0.519 -0.117,-1.067 -0.63,-1.248l-0.423,-0.033c-2.087,0 -20.714,0.306 -31.609,10.878c-2.371,2.3 -4.495,4.745 -6.435,7.422c4.31,-9.129 7.965,-18.747 10.911,-28.734l0.043,-0.146c0.037,-0.122 0.09,-0.307 0.125,-0.358l2.851,-3.913c0.106,-0.158 0.117,-0.158 0.286,-0.158c0.074,0 0.155,0.006 0.248,0.012l0.61,0.037c2.12,0.132 3.368,0.113 4.395,-0.048c4.057,-0.64 7.72,-2.682 11.195,-6.246c8.129,-8.336 13.725,-18.736 17.105,-31.792c0.361,-1.4 0.463,-2.812 0.573,-4.309c0.047,-0.677 0.101,-1.38 0.178,-2.102c0.019,-0.349 -0.118,-0.681 -0.378,-0.897" style="fill:#fff;fill-rule:nonzero;"/><path d="M143.137,407.594c-6.76,-1.491 -13.483,-3.67 -20.557,-6.65c-0.083,-0.041 -0.295,-0.277 -0.359,-0.489c-0.706,-2.405 -0.942,-4.826 -0.724,-7.403c1.384,-16.459 -8.418,-33.801 -23.303,-41.237c-0.317,-0.162 -0.647,-0.3 -1.027,-0.455l-0.353,-0.146c-0.336,-0.142 -0.744,-0.082 -1.016,0.135c-0.292,0.225 -0.438,0.594 -0.378,0.96l0.407,2.524c0.362,2.234 0.716,4.421 1.056,6.608l0.085,0.573c0.954,6.216 1.944,12.644 3.87,18.82c1.735,5.573 4.417,9.969 8.144,13.338c-7.877,-4.645 -15.216,-10.226 -21.882,-16.645c-0.139,-0.135 -0.305,-0.49 -0.329,-0.786l-0.177,-4.406c-0.002,-0.156 -0.004,-0.572 0.084,-0.778c3.284,-7.647 4.124,-16.257 2.573,-26.318c-1.495,-9.703 -5.639,-18.627 -12.314,-26.522c-0.781,-0.923 -1.47,-1.391 -2.049,-1.391c-0.141,0 -0.267,0.029 -0.369,0.079c-0.306,0.152 -0.515,0.449 -0.554,0.791l-0.179,1.536c-0.139,1.141 -0.271,2.262 -0.391,3.383c-0.205,1.977 -0.43,3.952 -0.658,5.924l-0.033,0.285c-0.564,4.93 -1.147,10.028 -1.456,15.131c-0.359,5.954 -0.253,12.908 3.265,19.341c0.019,0.033 0.036,0.066 0.055,0.099c-4.892,-6.117 -9.359,-12.7 -13.342,-19.674c-0.352,-0.62 -0.382,-1.167 -0.316,-1.954c0.283,-3.34 1.835,-6.054 3.47,-8.487c3.158,-4.712 5.069,-10.284 6.198,-18.064c1.579,-10.88 -0.016,-21.796 -4.735,-32.444c-0.129,-0.294 -0.281,-0.578 -0.442,-0.881l-0.369,-0.696c-0.177,-0.339 -0.554,-0.563 -0.954,-0.546c-0.395,0.021 -0.747,0.273 -0.891,0.639c-1.145,2.888 -2.252,5.67 -3.351,8.429l-0.704,1.765c-2.346,5.891 -4.978,12.771 -6.507,19.87c-1.078,5.01 -1.144,9.844 -0.199,14.447c-3.669,-8.733 -6.683,-17.959 -8.993,-27.527c-0.026,-0.107 -0.034,-0.382 0.194,-1.018c1.079,-2.955 3.048,-5.637 5.54,-7.548c5.455,-4.184 8.551,-10.001 10.859,-15.139c4.724,-10.507 6.006,-21.667 3.917,-34.125c-0.021,-0.13 -0.061,-0.26 -0.109,-0.399l-0.038,-0.112c-0.09,-0.279 -0.297,-0.504 -0.571,-0.623c-0.267,-0.11 -0.604,-0.091 -0.812,0.012c-0.209,0.078 -0.525,0.194 -0.731,0.493c-1.183,1.58 -2.384,3.175 -3.584,4.767l-0.202,0.266c-3.028,4.023 -6.163,8.18 -9.172,12.324c-3.488,4.786 -5.951,9.437 -7.531,14.221c-0.763,2.311 -1.261,4.534 -1.496,6.694c-1.004,-7.762 -1.574,-15.687 -1.698,-23.679c-0.029,-1.907 0.213,-3.422 1.516,-5.08c1.379,-1.769 2.669,-2.76 4.442,-3.411c7.297,-2.666 11.979,-8.297 15.24,-12.91c5.27,-7.455 8.361,-16.135 9.45,-26.527c0.115,-1.071 0.181,-2.151 0.249,-3.297l0.017,-0.261c0.032,-0.556 0.067,-1.139 0.111,-1.75c0.025,-0.408 -0.193,-0.793 -0.557,-0.977c-0.354,-0.176 -0.804,-0.125 -1.112,0.136l-0.865,0.742c-0.327,0.275 -0.606,0.516 -0.894,0.746c-1.39,1.116 -2.785,2.223 -4.184,3.331l-0.146,0.114c-3.07,2.43 -6.246,4.947 -9.278,7.543c-5.884,5.018 -9.672,10.014 -11.923,15.721c-0.371,0.942 -0.699,1.873 -0.977,2.795c0.924,-9.072 2.427,-18.005 4.491,-26.672c0.25,-1.06 0.39,-1.372 0.906,-1.541c0.325,-0.11 0.625,-0.322 0.846,-0.582c1.497,-1.701 3.468,-1.971 5.377,-2.01c6.372,-0.149 11.426,-3.328 15.528,-6.419c10.058,-7.575 16.985,-26.797 16.985,-27.449c0,-0.339 -0.171,-0.655 -0.457,-0.847c-0.283,-0.186 -0.665,-0.213 -0.953,-0.084c-2.096,0.891 -4.191,1.755 -6.361,2.652c-4.774,1.98 -9.71,4.025 -14.45,6.262c-4.77,2.258 -8.542,5.275 -11.235,8.99c2.568,-7.297 5.547,-14.454 8.88,-21.329c0.385,-0.742 2.185,-1.529 4.767,-1.529c0.84,0 1.653,0.09 2.357,0.259c6.067,1.453 12.082,0.572 18.741,-2.754c6.811,-3.406 12.463,-8.974 17.276,-17.026c0.092,-0.156 0.273,-0.632 0.37,-0.899c0.122,-0.324 0.073,-0.684 -0.129,-0.954c-0.188,-0.262 -0.489,-0.416 -0.873,-0.416l-0.01,0l-2.404,0.151c-1.474,0.093 -2.905,0.184 -4.335,0.259l-1.528,0.078c-4.563,0.229 -9.283,0.466 -13.899,1.565c-5.266,1.267 -9.132,3.211 -12.097,6.093c3.509,-5.84 7.266,-11.397 11.225,-16.602c0.108,-0.14 0.617,-0.349 1.035,-0.422c0.21,-0.047 0.97,-0.206 1.983,-0.206c1.341,0 2.515,0.27 3.51,0.82c6.325,3.094 13.428,3.322 21.141,0.673c6.327,-2.163 11.684,-6.175 16.381,-12.267c0.153,-0.197 0.291,-0.411 0.416,-0.638c0.144,-0.262 0.153,-0.547 0.027,-0.807c-0.363,-0.764 -1.936,-1.12 -2.598,-1.239c-1.626,-0.284 -3.468,-0.608 -5.295,-0.856c-0.836,-0.117 -1.673,-0.239 -2.514,-0.363l-0.109,-0.016c-2.846,-0.421 -5.788,-0.856 -8.751,-1.005c-5.415,-0.275 -10.223,0.828 -14.159,3.274c2.647,-2.815 5.35,-5.486 8.095,-7.998c0.869,-0.791 1.852,-1.59 3.188,-2.592c0.105,-0.078 0.367,-0.171 0.69,-0.191c9.484,-0.371 17.376,-4.558 24.123,-12.797c3.677,-4.486 6.495,-10.143 8.619,-17.297l0.072,-0.246c0.228,-0.752 0.354,-1.165 -0.168,-1.649c-0.403,-0.373 -1.11,-0.264 -2.952,0.464c-1.671,0.644 -3.354,1.268 -5.079,1.908c-3.469,1.287 -7.058,2.615 -10.521,4.117c-5.787,2.516 -10.408,6.329 -13.733,11.331c-2.532,3.806 -3.532,7.631 -3.061,11.671c-0.003,0.047 -0.043,0.152 -0.05,0.166c-6.04,5.215 -11.815,11.086 -17.743,18.078c3.954,-6.047 6.531,-13.006 7.824,-21.075c1.304,-8.136 1.386,-15.374 0.255,-22.135c-0.073,-0.422 -0.17,-0.846 -0.294,-1.376l-0.185,-0.816c-0.084,-0.349 -0.347,-0.632 -0.693,-0.739c-0.346,-0.104 -0.734,-0.014 -0.991,0.235c-0.414,0.39 -0.819,0.756 -1.215,1.114l-0.279,0.251c-1.013,0.914 -1.97,1.775 -2.836,2.75c-8.414,9.49 -13.322,19.516 -15.002,30.651c-0.766,5.032 -0.448,9.316 0.971,13.093c0.47,1.251 1.204,2.367 1.933,3.479c0.335,0.507 0.671,1.015 0.975,1.537c0.228,0.375 0.245,0.472 0.243,0.454c-0.138,1.487 -0.338,3.146 -0.607,5.139c-0.013,0.025 -0.05,0.083 -0.171,0.243l-0.097,0.135c-4.601,6.395 -8.847,13.139 -12.667,20.117c1.503,-5.212 2.698,-11.81 2.614,-19.477c-0.104,-9.197 -2.221,-17.396 -6.477,-25.077c-0.168,-0.297 -0.473,-0.493 -0.901,-0.521c-0.308,0 -0.608,0.153 -0.802,0.417c-0.127,0.175 -0.257,0.345 -0.38,0.503c-0.276,0.355 -0.532,0.692 -0.764,1.051c-3.388,5.313 -5.204,11.172 -6.412,15.682c-2.205,8.274 -3.218,15.183 -3.189,21.744c0.016,5.579 1.033,9.865 3.199,13.493c0.674,1.129 1.522,2.117 2.375,3.111c0.453,0.525 0.918,1.07 1.338,1.625c0.296,0.387 0.436,0.779 0.445,1c0.055,1.323 0.026,2.667 -0.003,3.964l-0.018,0.899c-0.003,0.154 -0.039,0.333 -0.092,0.467c-2.72,6.591 -5.111,13.44 -7.15,20.474c0.3,-2.392 0.469,-4.713 0.512,-6.976c0.247,-12.843 -3.693,-24.312 -11.709,-34.092l-1.672,-2.035c-0.194,-0.24 -0.48,-0.375 -0.785,-0.375l-0.167,0.015c-0.359,0.058 -0.658,0.306 -0.783,0.643c-0.152,0.407 -0.301,0.791 -0.448,1.161c-0.28,0.717 -0.544,1.396 -0.767,2.087c-1.72,5.389 -2.564,11.276 -2.735,19.085l-0.003,0.152c-0.129,5.68 -0.305,13.463 2.028,20.913c2.297,7.33 6.349,11.037 7.134,11.703l0.083,0.078c2.139,1.908 3.531,3.653 3.819,4.787c0.117,0.457 0.235,0.916 0.372,1.369c0.611,2.016 0.229,3.939 -0.183,6.015c-0.203,1.047 -0.417,2.13 -0.492,3.24c-0.294,4.444 -0.655,8.963 -1.005,13.331l-0.032,0.403c-0.09,1.114 -0.178,2.232 -0.267,3.344c-0.892,-9.998 -4.204,-19.085 -9.901,-27.126c-3.489,-4.917 -7.647,-9.125 -12.366,-12.509c-0.203,-0.146 -0.417,-0.276 -0.703,-0.447c-0.141,-0.081 -0.3,-0.177 -0.495,-0.299c-0.296,-0.174 -0.673,-0.193 -0.977,-0.043c-0.311,0.151 -0.525,0.458 -0.561,0.808c-0.063,0.632 -0.14,1.244 -0.216,1.879c-0.158,1.298 -0.307,2.53 -0.313,3.79c-0.072,13.082 2.697,25.338 8.227,36.429c1.54,3.093 3.576,5.767 6.053,7.954c2.454,2.158 5.106,3.429 8.096,3.89c0.066,0.011 0.223,0.105 0.248,0.125c0.161,0.325 0.328,0.651 0.497,0.978c0.597,1.153 1.214,2.348 1.521,3.547c0.255,1.012 0.255,2.115 0.255,3.29c0,0.429 0,0.859 0.016,1.285c0.288,10.133 0.664,13.661 2.286,22.715c-0.99,-2.693 -2.232,-5.391 -3.835,-7.988c-6.495,-10.514 -14.743,-17.646 -25.221,-21.81c-0.665,-0.266 -1.333,-0.459 -2.109,-0.688l-0.155,-0.044c-0.315,-0.094 -0.648,-0.191 -1.004,-0.3c-0.323,-0.105 -0.688,-0.033 -0.952,0.183c-0.261,0.217 -0.396,0.549 -0.362,0.893c0.077,0.719 0.131,1.417 0.179,2.099c0.108,1.497 0.208,2.909 0.572,4.307c3.38,13.055 8.975,23.453 17.103,31.791c3.475,3.564 7.137,5.608 11.196,6.248c1.023,0.16 2.275,0.179 4.393,0.047l0.61,-0.037c0.093,-0.005 0.175,-0.01 0.248,-0.01c0.169,0 0.182,0 0.297,0.171l2.838,3.898c0.037,0.05 0.09,0.235 0.126,0.362l0.042,0.141c2.946,9.986 6.601,19.606 10.911,28.734c-1.939,-2.676 -4.066,-5.121 -6.435,-7.421c-10.893,-10.573 -29.52,-10.878 -31.609,-10.878l-0.261,0.003l-0.164,0.03c-0.513,0.181 -0.789,0.729 -0.631,1.243c0.145,0.486 0.28,0.978 0.436,1.552c0.297,1.084 0.607,2.204 1.041,3.285c2.063,5.158 5.409,10.12 10.531,15.621c3.519,3.77 7.487,7.595 12.646,10.014c5.65,2.653 10.752,3.3 15.826,2.002c0.862,-0.228 1.856,-0.516 2.708,-1.069c0.608,-0.389 0.774,-0.377 1.372,0.069c0.708,0.526 1.46,0.969 2.193,1.396c0.404,0.236 0.811,0.477 1.191,0.716c0.061,0.051 0.19,0.265 0.238,0.342c4.551,7.424 9.568,14.326 14.983,20.619c-2.928,-2.13 -5.936,-3.672 -9.131,-4.7c-9.762,-3.144 -19.993,-2.744 -30.127,1.172c-1.512,0.586 -3.171,1.474 -3.281,1.537c-0.232,0.152 -0.392,0.398 -0.442,0.683c-0.045,0.276 0.028,0.561 0.197,0.779c0.317,0.411 0.623,0.826 0.926,1.234l0.067,0.09c0.684,0.931 1.459,1.985 2.328,2.922c3.916,4.195 8.741,7.008 13.375,9.423c6.372,3.305 12.89,5.085 19.368,5.297c0.306,0.01 0.611,0.016 0.915,0.016c5.961,0 10.615,-1.963 14.203,-5.983c0.044,-0.032 0.2,-0.092 0.285,-0.092c1.37,0.098 2.673,0.297 3.647,0.459c0.153,0.026 0.342,0.118 0.459,0.226c5.993,5.304 12.339,9.961 18.971,13.924c-1.007,-0.297 -2.042,-0.556 -3.101,-0.766c-7.084,-1.361 -14.316,-0.507 -22.256,2.647c-5.356,2.136 -10.338,5.27 -15.23,9.588c-0.403,0.356 -0.459,0.962 -0.128,1.387c1.732,2.202 3.984,3.436 5.958,4.351c4.819,2.239 10.257,3.672 16.632,4.385c0.017,0.001 2.067,0.178 4.94,0.178c2.074,0 4.003,-0.093 5.731,-0.276c1.653,-0.172 3.301,-0.454 4.901,-0.84c7.345,-1.789 12.322,-5.464 15.173,-11.173c0.051,-0.048 0.27,-0.176 0.548,-0.244c1.326,-0.329 2.519,-0.561 3.654,-0.712c0.265,-0.043 0.6,0.029 1.019,0.201c5.074,1.953 10.441,3.58 15.946,4.837c0.077,0.017 0.157,0.028 0.236,0.028c0.37,0 0.71,-0.204 0.891,-0.537c0.525,-0.977 1.165,-1.916 1.902,-2.787c0.231,-0.276 0.298,-0.641 0.186,-0.979c-0.106,-0.328 -0.382,-0.577 -0.734,-0.658" style="fill:#fff;fill-rule:nonzero;"/><rect x="75.385" y="493.418" width="42.48" height="5.641" style="fill:#fff;fill-rule:nonzero;"/><text x="141.293px" y="508.867px" style="font-family:'ArialMT', 'Arial', sans-serif;font-size:48px;fill:#fff;">ELEKTROBOJ</text><text x="251.936px" y="372.617px" style="font-family:'ArialMT', 'Arial', sans-serif;font-size:48px;fill:#fff;">2018</text><text x="116.915px" y="236.552px" style="font-family:'Arial-ItalicMT', 'Arial', sans-serif;font-style:italic;font-size:36px;fill:#fff;">electronics competition</text><text x="205.866px" y="148.6px" style="font-family:'Arial-ItalicMT', 'Arial', sans-serif;font-style:italic;font-size:48px;fill:#fff;">3rd place</text></svg>